<?xml version="1.0" encoding="utf-8"?>
<!-- Generator: Adobe Illustrator 24.1.1, SVG Export Plug-In . SVG Version: 6.00 Build 0)  -->
<svg version="1.1" id="Layer_1" xmlns="http://www.w3.org/2000/svg" xmlns:xlink="http://www.w3.org/1999/xlink" x="0px" y="0px"
	 viewBox="0 0 247 286.22" style="enable-background:new 0 0 247 286.22;" xml:space="preserve">
<style type="text/css">
	.st0{display:none;stroke:#000000;stroke-miterlimit:10;}
	.st1{fill:#FF3300;}
</style>
<g>
	<path class="st1" d="M50.77,101.69c-0.01-9.21,2.94-18.54,8.85-27.99c5.9-9.45,14.52-17.28,25.86-23.5
		c11.33-6.21,24.56-9.32,39.68-9.33c14.05-0.01,26.46,2.57,37.22,7.75c10.76,5.18,19.08,12.22,24.95,21.13
		c5.87,8.91,8.81,18.6,8.82,29.07c0.01,8.24-1.66,15.46-5,21.66c-3.34,6.21-7.31,11.56-11.91,16.07
		c-4.6,4.51-12.86,12.1-24.77,22.77c-3.29,3.01-5.93,5.65-7.92,7.93c-1.99,2.28-3.46,4.36-4.43,6.25c-0.97,1.89-1.72,3.78-2.25,5.67
		c-0.53,1.89-1.33,5.21-2.39,9.96c-1.83,10.08-7.6,15.12-17.29,15.13c-5.04,0-9.28-1.64-12.72-4.93c-3.44-3.29-5.17-8.18-5.17-14.68
		c-0.01-8.14,1.25-15.19,3.76-21.15c2.51-5.96,5.85-11.2,10.02-15.71c4.16-4.51,9.78-9.87,16.85-16.08
		c6.2-5.43,10.68-9.53,13.44-12.29c2.76-2.76,5.08-5.84,6.97-9.24c1.89-3.39,2.83-7.07,2.83-11.05c-0.01-7.75-2.9-14.29-8.66-19.62
		c-5.77-5.32-13.21-7.98-22.32-7.98c-10.66,0.01-18.51,2.7-23.54,8.09c-5.04,5.38-9.29,13.31-12.77,23.78
		c-3.29,10.95-9.53,16.43-18.74,16.44c-5.43,0-10.01-1.9-13.74-5.73C52.64,110.29,50.77,106.15,50.77,101.69z M121.83,260.95
		c-5.91,0-11.07-1.91-15.49-5.73c-4.41-3.82-6.62-9.18-6.63-16.06c0-6.11,2.12-11.24,6.38-15.41c4.26-4.17,9.49-6.26,15.69-6.26
		c6.11,0,11.24,2.08,15.41,6.24c4.17,4.16,6.26,9.3,6.26,15.4c0,6.78-2.17,12.12-6.53,15.99C132.58,259,127.54,260.95,121.83,260.95
		z"/>
</g>
</svg>
